<?xml version="1.0" encoding="UTF-8"?>
<svg version="1.1" xmlns="http://www.w3.org/2000/svg" width="225" height="225">
<path d="M0 0 C74.25 0 148.5 0 225 0 C225 74.25 225 148.5 225 225 C150.75 225 76.5 225 0 225 C0 150.75 0 76.5 0 0 Z " fill="#07090E" transform="translate(0,0)"/>
<path d="M0 0 C13.16665628 -0.0305104 26.33331325 -0.05094394 39.5 -0.0625 C40.46847744 -0.06335602 41.43695488 -0.06421204 42.43478012 -0.06509399 C72.64309267 -0.08869716 102.79940191 0.19195724 133 1 C133 16.84 133 32.68 133 49 C88.78 49 44.56 49 -1 49 C-1 49.66 -1 50.32 -1 51 C-6.28 51 -11.56 51 -17 51 C-17 35.49 -17 19.98 -17 4 C-9.08 3.505 -9.08 3.505 -1 3 C-0.67 2.01 -0.34 1.02 0 0 Z " fill="#14442C" transform="translate(92,20)"/>
<path d="M0 0 C74.25 0 148.5 0 225 0 C225 5.94 225 11.88 225 18 C193.66368802 18.91684089 162.34739978 19.08987167 131 19.0625 C130.0127166 19.06164398 129.0254332 19.06078796 128.00823212 19.05990601 C115.672137 19.04842385 103.33606777 19.02821684 91 19 C91 19.66 91 20.32 91 21 C85.39 21 79.78 21 74 21 C74 38.16 74 55.32 74 73 C67.4 73 60.8 73 54 73 C54 50.23 54 27.46 54 4 C36.18 4 18.36 4 0 4 C0 2.68 0 1.36 0 0 Z " fill="#3C5C4B" transform="translate(0,0)"/>
<path d="M0 0 C13.16665628 -0.0305104 26.33331325 -0.05094394 39.5 -0.0625 C40.46847744 -0.06335602 41.43695488 -0.06421204 42.43478012 -0.06509399 C72.63564876 -0.08869134 102.81036746 0.0935637 133 1 C133 2.32 133 3.64 133 5 C88.78 5 44.56 5 -1 5 C-1 5.66 -1 6.32 -1 7 C-6.28 7 -11.56 7 -17 7 C-17 6.01 -17 5.02 -17 4 C-9.08 3.505 -9.08 3.505 -1 3 C-0.67 2.01 -0.34 1.02 0 0 Z " fill="#133D2A" transform="translate(92,20)"/>
<path d="M0 0 C13.16665628 -0.0305104 26.33331325 -0.05094394 39.5 -0.0625 C40.46847744 -0.06335602 41.43695488 -0.06421204 42.43478012 -0.06509399 C72.63564876 -0.08869134 102.81036746 0.0935637 133 1 C133 1.33 133 1.66 133 2 C76.57 2.99 76.57 2.99 19 4 C19 4.33 19 4.66 19 5 C12.73 5.33 6.46 5.66 0 6 C0 6.33 0 6.66 0 7 C-5.94 7 -11.88 7 -18 7 C-17.67 6.01 -17.34 5.02 -17 4 C-9.08 3.505 -9.08 3.505 -1 3 C-0.67 2.01 -0.34 1.02 0 0 Z " fill="#2A754B" transform="translate(92,70)"/>
<path d="M0 0 C6.50654754 0.01053109 13.01309959 0.01485892 19.51965332 0.01983643 C32.11601843 0.03032304 44.71236491 0.04721141 57.30871582 0.06866455 C57.30871582 1.05866455 57.30871582 2.04866455 57.30871582 3.06866455 C43.41212584 3.09233216 29.51554101 3.10984583 15.61893463 3.12047672 C9.15907557 3.12559114 2.69923074 3.13246633 -3.76062012 3.144104 C-40.08542067 3.20782167 -76.37535684 2.86187407 -112.69128418 2.06866455 C-112.69128418 1.73866455 -112.69128418 1.40866455 -112.69128418 1.06866455 C-75.12130941 0.24806423 -37.57901152 -0.06770004 0 0 Z " fill="#052D1A" transform="translate(167.6912841796875,-0.06866455078125)"/>
<path d="M0 0 C13.16665628 -0.0305104 26.33331325 -0.05094394 39.5 -0.0625 C40.46847744 -0.06335602 41.43695488 -0.06421204 42.43478012 -0.06509399 C72.63564876 -0.08869134 102.81036746 0.0935637 133 1 C133 1.33 133 1.66 133 2 C101.66563122 2.94571542 70.34593423 3.08987039 39 3.0625 C38.0127166 3.06164398 37.0254332 3.06078796 36.00823212 3.05990601 C23.672137 3.04842385 11.33606777 3.02821684 -1 3 C-0.67 2.01 -0.34 1.02 0 0 Z M-1 3 C-1 3.66 -1 4.32 -1 5 C-6.28 5 -11.56 5 -17 5 C-17 4.67 -17 4.34 -17 4 C-14.70839646 3.83246763 -12.41671509 3.66599948 -10.125 3.5 C-8.84882812 3.4071875 -7.57265625 3.314375 -6.2578125 3.21875 C-4.50763316 3.10123196 -2.75412035 3 -1 3 Z " fill="#207445" transform="translate(92,20)"/>
<path d="M0 0 C0 0.99 0 1.98 0 3 C-14.55287703 3.02349616 -29.1057515 3.04106046 -43.65864372 3.05181217 C-50.4177807 3.05693996 -57.17690581 3.06391449 -63.93603516 3.07543945 C-70.47184498 3.08638925 -77.00764255 3.0923022 -83.54346085 3.09487724 C-86.02381712 3.09670987 -88.5041728 3.100288 -90.98452377 3.10573006 C-104.69388929 3.13458408 -118.32241663 2.98200069 -132 2 C-132 1.67 -132 1.34 -132 1 C-119.00006935 0.82779715 -106.00006978 0.66136356 -93 0.5 C-92.04339981 0.48812275 -91.08679962 0.4762455 -90.10121155 0.46400833 C-60.06595647 0.09286981 -30.03789582 -0.15510512 0 0 Z " fill="#05321D" transform="translate(225,72)"/>
<path d="M0 0 C36.63 0 73.26 0 111 0 C111 0.99 111 1.98 111 3 C74.37 3 37.74 3 0 3 C0 2.01 0 1.02 0 0 Z " fill="#6C6E72" transform="translate(0,0)"/>
<path d="M0 0 C18.48 0 36.96 0 56 0 C56 0.33 56 0.66 56 1 C49.4 1 42.8 1 36 1 C36 1.66 36 2.32 36 3 C30.39 3 24.78 3 19 3 C19 3.66 19 4.32 19 5 C12.73 5 6.46 5 0 5 C0 3.35 0 1.7 0 0 Z " fill="#B9B9BB" transform="translate(55,18)"/>
</svg>
